<?xml version="1.0"?>
<svg xmlns="http://www.w3.org/2000/svg" xmlns:xlink="http://www.w3.org/1999/xlink" viewBox="0 0 240.1 240.1">
  <defs>
    <linearGradient id="greenGrad" gradientUnits="userSpaceOnUse" x1="-838.041" y1="660.581" x2="-838.041" y2="660.3427" gradientTransform="matrix(1000 0 0 -1000 838161 660581)">
      <stop offset="0" stop-color="#66BB6A"/>
      <stop offset="1" stop-color="#1B5E20"/>
    </linearGradient>
  </defs>

  <!-- Круглый фон с зелёным градиентом (в точности как в примере, но цвет заменён) -->
  <circle fill-rule="evenodd" clip-rule="evenodd" fill="url(#greenGrad)" cx="120.1" cy="120.1" r="120.1"/>

  <!-- Телефонная трубка Material Design, масштабирована пропорционально (коэффициент 7.5) -->
  <g transform="translate(120.1, 120.1) scale(7.5) translate(-12, -12)">
    <path d="M20.01 15.38c-1.23 0-2.42-.2-3.53-.56a.977.977 0 0 0-1.01.24l-1.57 1.97c-2.83-1.35-5.48-3.9-6.89-6.83l1.95-1.66c.27-.28.35-.67.24-1.02-.37-1.11-.56-2.3-.56-3.53 0-.54-.45-.99-.99-.99H4.19C3.65 3 3 3.24 3 3.99 3 13.28 10.73 21 20.01 21c.71 0 .99-.63.99-1.18v-3.45c0-.54-.45-.99-.99-.99z" fill="#FFFFFF"/>
  </g>
</svg>